{"title":"Assault.Of.The.Sasquatch","uid":5916110,"size":1115863542,"categoryP":"video","categoryS":"movies","magnet":"?xt=urn:btih:4d9bdce1272e171d7a7e7d40e919b99b7714dfde&amp;dn=Assault.Of.The.Sasquatch&amp;tr=udp%3A%2F%2Ftracker.openbittorrent.com%3A80&amp;tr=udp%3A%2F%2Fopen.demonii.com%3A1337&amp;tr=udp%3A%2F%2Ftracker.coppersurfer.tk%3A6969&amp;tr=udp%3A%2F%2Fexodus.desync.com%3A6969","seeders":0,"leechers":1,"uploader":"deffjam555","files":8,"time":1288233150,"description":"cover\n\n\nGenre:Action | Horror\nLanguage:English\nIMDb:http://www.imdb.com/title/tt1251368/\nSource:NTSC DVDR\n\n\nGeneral\nComplete name :Assault.Of.The.Sasquatch.2009.DvDRip.XviD.Ac3.Feel-Free\nFormat : AVI\nFormat/Info : Audio Video Interleave\nFile size : 1.04 GiB\nDuration : 1h 24mn\nOverall bit rate : 1 756 Kbps\nVideo #0\nMuxing mode : Packed bitstream\nCodec ID : XVID\nCodec ID/Hint : XviD\nDuration : 1h 24mn\nBit rate : 1 299 Kbps\nWidth : 720 pixels\nHeight : 304 pixels\nDisplay aspect ratio : 2.35:1\nFrame rate : 23.976 fps\nResolution : 24 bits\nColorimetry : 4:2:0\nScan type : Progressive\nBits/(Pixel*Frame) : 0.248\nStream size : 787 MiB (74%)\nWriting library : XviD 1.2.1 (UTC 2008-12-04)\nAudio #1\nID : 1\nFormat : AC-3\nFormat/Info : Audio Coding 3\nCodec ID : 2000\nDuration : 1h 24mn\nBit rate mode : Constant\nBit rate : 448 Kbps\nChannel(s) : 6 channels\nChannel positions : Front: L C R, Surround: L R, LFE\nSampling rate : 48.0 KHz\nStream size : 271 MiB (25%)\nAlignment : Split accross interleaves\nInterleave, duration : 42 ms (1.00 video frame)\nInterleave, preload duration : 500 ms\n\nPlot:\nWhen a merciless bear poacher is caught and arrested deep in the woods of a state park, he and his truck are taken to a neglected precinct in the heart of a dying city. Unbeknownst to the authorities, the impounded truck holds a deadly cargo in the form of the legendary Sasquatch. Now, stuck in an unfamiliar world\n &lt;a href=&quot;\nhttp://img841.imageshack.us/img841/846/assaultofthesasquatch20.jpg&quot; rel=&quot;nofollow&quot; target=&quot;_NEW&quot;&gt;\nhttp://img841.imageshack.us/img841/846/assaultofthesasquatch20.jpg&lt;/a&gt; &lt;a href=&quot;\nhttp://img229.imageshack.us/img229/846/assaultofthesasquatch20.jpg&quot; rel=&quot;nofollow&quot; target=&quot;_NEW&quot;&gt;\nhttp://img229.imageshack.us/img229/846/assaultofthesasquatch20.jpg&lt;/a&gt; &lt;a href=&quot;\nhttp://img641.imageshack.us/img641/846/assaultofthesasquatch20.jpg&quot; rel=&quot;nofollow&quot; target=&quot;_NEW&quot;&gt;\nhttp://img641.imageshack.us/img641/846/assaultofthesasquatch20.jpg&lt;/a&gt; &lt;a href=&quot;\nhttp://img10.imageshack.us/img10/846/assaultofthesasquatch20.jpg&quot; rel=&quot;nofollow&quot; target=&quot;_NEW&quot;&gt;\nhttp://img10.imageshack.us/img10/846/assaultofthesasquatch20.jpg&lt;/a&gt; &lt;a href=&quot;\nhttp://img829.imageshack.us/img829/846/assaultofthesasquatch20.jpg&quot; rel=&quot;nofollow&quot; target=&quot;_NEW&quot;&gt;\nhttp://img829.imageshack.us/img829/846/assaultofthesasquatch20.jpg&lt;/a&gt;","torrent":{"xt":"urn:btih:4d9bdce1272e171d7a7e7d40e919b99b7714dfde","amp;dn":"Assault.Of.The.Sasquatch","amp;tr":["udp%3A%2F%2Ftracker.openbittorrent.com%3A80","udp%3A%2F%2Fopen.demonii.com%3A1337","udp%3A%2F%2Ftracker.coppersurfer.tk%3A6969","udp%3A%2F%2Fexodus.desync.com%3A6969"],"infoHash":"4d9bdce1272e171d7a7e7d40e919b99b7714dfde","infoHashBuffer":{"type":"Buffer","data":[77,155,220,225,39,46,23,29,122,126,125,64,233,25,185,155,119,20,223,222]},"announce":[],"urlList":[]}}